<svg viewBox="0 0 400 238" fill="none" xmlns="http://www.w3.org/2000/svg">
  <path d="M165.5 237.7c-6.3 0-12.9-1.1-19.3-3.3-9.7-3.4-19-9-26.9-16.5a118.8 118.8 0 0 1-24-34l9-4.6a109.3 109.3 0 0 0 22 31.2c14.4 13.6 33.1 19.7 48.9 15.9 10.2-2.5 19.4-9 26.7-19 6.7-9 11.6-20.8 13.8-33 2.8-15.2 2.4-30.5 2-46.6-.2-9.2-.4-18.7 0-28.1.7-15.5 3.5-29.3 8.2-41l9.5 3.8a115.3 115.3 0 0 0-7.5 37.6c-.4 9-.2 18.4 0 27.4.4 16 .8 32.5-2.2 48.8a91.6 91.6 0 0 1-15.6 37.1 57.6 57.6 0 0 1-32.5 22.9c-4 1-8 1.4-12.1 1.4Z" fill="#FF4F40"/>
  <path d="M135.1 217.5a37.4 37.4 0 0 1-9 6c2.6 2 5.4 4 8.3 5.5 3.5-2 6.4-4.4 8.7-6.9a61.7 61.7 0 0 1-8-4.6Zm-19.9-19.9c-3.4 1.4-7.6 1.5-10.8 2.5 1.8 2.6 4.4 6.1 6.4 8.5 3.3-1 6.6-2.3 10.1-3.8a86 86 0 0 1-5.7-7.2Z" fill="#112231"/>
  <path d="M63.2 205v.1Zm140-62.6c-2.5 0-4.5-2-4.5-4.5 0-.6.1-1.1.3-1.7a56.9 56.9 0 0 1-39.3 26.1l-1.9-3.9c-4-7.6-8-13-13-17.2a31.8 31.8 0 0 0-21.7-7.8c-8.3.4-17 6.2-16.8 15 .2 5.4 3.7 10.2 10.6 14.3 11 6.5 23.9 9.7 36.7 9.2a15 15 0 0 1-.1 7.6c-1.3 4-5 7.6-10 9.8-1.3.5-2.6 1-4 1.3-8-11-20.7-19.9-36.7-25.5a40 40 0 0 0-20.8-2.6c-6 1.2-10.9 4.8-12.8 9.5-2 4.9-.7 11 3.2 15.6 3.4 4 8 6.2 11.7 7.7 11.9 4.8 26 6.7 43.1 5.9 2.6-.2 5.4-.4 8.1-.8l.5.8c2.2 4.3 3 7.9 2 10.6-2 5.9-11.2 7.8-15 8.4-20.4 3-42-2.4-58.5-14.3.8.8 1.4 1.9 1.4 3.1 0 2.5-2 4.5-4.6 4.5-.8 0-1.5-.2-2.2-.6a89.5 89.5 0 0 0 65 16c11.9-1.6 19.8-6.7 22.3-14.3 1.6-4.7 1-10.2-2-16.1l2.7-1a26 26 0 0 0 15-15.3c1.2-3.8 1.2-7.6.5-11.2a65 65 0 0 0 44-29.8c-.7.8-1.9 1.3-3.2 1.3v-.1ZM121.4 155c-2.3-1.3-6.2-4-6.2-7-.1-3 4.4-5.6 8.4-5.8h.9c4.9 0 10.2 2 14.6 5.8 4 3.4 7.5 8 10.9 14.5l.2.5a58.6 58.6 0 0 1-28.8-8Zm5.4 37.3c-15.9.8-28.7-1-39.4-5.3-4-1.6-6.6-3.2-8.3-5.2-1.7-2-2.4-4.7-1.7-6.5.8-1.9 3.3-3.5 6.3-4.1 1.2-.3 2.5-.4 3.7-.4a70.8 70.8 0 0 1 42 21.3l-2.6.2Z" fill="#004E60"/>
  <path d="M203.2 142.4a5 5 0 0 0 3.3-1.4c.8-.8 1.3-1.9 1.3-3 0-2.5-2-4.5-4.6-4.5a4.6 4.6 0 0 0-4.2 2.7 4.5 4.5 0 0 0 4.2 6.1ZM65.6 209a4.4 4.4 0 0 0-2.3-3.9c-.7-.4-1.4-.5-2.2-.5-2.5 0-4.5 2-4.5 4.4 0 1.6.9 3.1 2.3 3.8a4.5 4.5 0 0 0 6.7-3.8Z" fill="#112231"/>
  <path d="m316.5 148.1 10.3-14.3-10.3 14.3ZM263 126.2l19.9-13.4-19.9 13.4Zm37.3 4.2a194 194 0 0 1 75.5-65.3l23.3-32.6-133 60.7 34.2 37.2ZM243.6 85l155.5-52.5-45.4 8.9a55 55 0 0 1-7.3 5.4 29 29 0 0 1-20.6 4.5c-3-.6-6-1.9-9.1-2.7l-14.3 2.8c-2.5 1.7-4.8 3.7-7.2 5.4-8 5.6-18 7.9-27.7 8.1-7.8.2-15.7-.8-23.5-2.1l-50.6 9.9 50.2 12.2Z" fill="#2EAFC0"/>
  <path d="M266.3 94.6 242.5 140l20.5-13.9 19.9-13.4-16.6-18.2Z" fill="#68CDB5"/>
  <path d="m243.3 137.2.1-22.9 15.3-7 7.3-14.1 133-60.7L243.7 85l-.3 52.2Z" fill="#016B83"/>
  <path d="M267.5 65c9.8-.4 19.7-2.6 27.7-8.2 2.4-1.7 4.7-3.7 7.2-5.4L244 62.8a127 127 0 0 0 23.5 2.1Zm78.9-18.2a55 55 0 0 0 7.3-5.4l-37 7.2c3 .8 6 2.1 9.1 2.7a29 29 0 0 0 20.6-4.5ZM375.8 65a194 194 0 0 0-75.5 65.4L266 93.2l-7.3 14.2-15.4 29.8.3-52.2-50.2-12.3v.8l49.2 12.4-.1 54.2 23.8-45.5 16.6 18.3 32.6 35.9 1-.7 10.2-14.3 49-68.7h.1Z" fill="#8CE6D1"/>
  <path d="m243.3 137.2 15.4-29.8-15.3 7-.1 22.8ZM344 43.3l-27.5 5.3c4.4 2.8 8.6 6.1 12.3 9.8l-1.6 6.9 5.7-2.5c1 1 1.8 2.2 2.7 3.3a71.8 71.8 0 0 1 14 35.7l1.6-2.2 6-14.8-13.3-41.5ZM219.9 80.2l-.6 3 10.5-.5-10-2.5Z" fill="#112231"/>
  <path d="m357.7 121.7-10-2.3c3-13.6 2.9-27.8-.5-41a72.5 72.5 0 0 0-19.6-35c-9.4-9-22.6-15-36.2-16.3a51.6 51.6 0 0 0-37.1 9.5 59.4 59.4 0 0 0-19 25.9l-9.4-3.8a69.5 69.5 0 0 1 22.2-30.3A62.3 62.3 0 0 1 292.5 17c16 1.7 31 8.5 42.1 19.2a82.7 82.7 0 0 1 22.5 39.7c3.8 14.9 4 30.7.6 45.9Z" fill="#FF4F40"/>
  <path d="m83.1 166.7 2.2 3.2.7 1h1.4c4.4 0 8.9 1.3 12.5 2.5l.6.3a298 298 0 0 1-6.7-9.5l-1.3-1.8a30.7 30.7 0 0 0-12 .4l2.6 3.9Z" fill="#112231"/>
  <path d="M95.3 184a273 273 0 0 1-9.4-21c-4-9.6-7.7-18.7-13.6-26.5-7-9.2-16.5-14.8-25.4-15-14.8-.2-27 13-37.9 27.3l-8.1-6.3C13.5 126.1 27.8 111 47 111.3a44 44 0 0 1 33.4 19c6.7 8.9 11 19 15 28.9l1.5 3.6c2.7 6.4 5 11.7 7.5 16.5l-9.1 4.6ZM132 64.2c-31 6.1-34 9-40.2 43-5.2-34-8.5-36.6-40.2-43 29.9-7.6 33-10.6 40.2-43 6.6 32 9.5 35.2 40.2 43Z" fill="#FF4F40"/>
  <path d="m104.4 67.8-3.6-7.5a254.2 254.2 0 0 1-11.4-29c-2.7 10.5-5.3 16.8-9.7 21.3l3.6 8.7A168 168 0 0 0 69.1 59c-4.5 1.8-10.2 3.4-17.5 5.2C70 68 78.7 70.3 84 78.2l9 2.7c1 1.9 2.2 3.7 3.3 5.6l.1.2C99.3 78 103 73.4 110 70.2c-1.8-.9-3.7-1.7-5.6-2.4Z" fill="#FF945A"/>
  <path d="m213.9 195 5.3 2.6 1.1-2.6H214Z" fill="#112231"/>
  <path d="M294.3 195c-31 6-34.1 9-40.2 43-5.2-34.1-8.5-36.7-40.2-43 29.9-7.7 33-10.7 40.2-43 6.6 32 9.5 35.1 40.2 43Z" fill="#68CDB5"/>
  <path d="m257.8 220.6-4.8 2.2c2.7-4 5.7-8 8.4-11.9.8-1.5 1.7-2.8 2.6-4l.8-1v.2l2.8-2.5-.4-2.2a40 40 0 0 0 2.3-6c.7-2.2 1.6-5.5 1.4-8.4-4-2.3-6.9-5.1-9-9-.2 1.1-.2 2.3-.2 3.5a23 23 0 0 0-9.6 6.2 71.5 71.5 0 0 0-7.8 9 26 26 0 0 0 1-7.9c-.1-2.1-.6-4.9-2.6-6l-.1-.1c-2.7 2.9-6.2 5-10.8 6.9a58.7 58.7 0 0 0-4.4 8.4l3.1.9c1.5-3.1 3-6.3 5-9 1.1-1.5 2.5-3 4-4 1.4-.8 1.8-.2 2.2 1 .3 1.2.3 2.4.3 3.6-.3 4-1.3 8.2-2.4 12.1l3 2.2c2.8-4.1 5.7-8.2 9-12 2.7-3 6.1-6.7 10.2-8 .2 3.7.7 7.4 1.2 10.8l.8 5.3a75.2 75.2 0 0 1-6 9.4c-2.4 3.3-4.8 6.6-7 10 .5 1.9 1 4 1.4 6.4l4.5-2.1 1-4Zm9.5-35.1c.5 1 .2 2.5.1 3.5-.1 2-.6 4-1.2 6v-.6c-.5-3.2-1-6.5-1.1-10 .9.1 1.8.4 2.2 1Zm-9.3-16.8-.8-3.1-5.4 1-1.5.3-1.1 3.7a118.3 118.3 0 0 1 8.9-1.8Zm-137.4-102 5-1.2L127 63l-3.8-1a128 128 0 0 0-2.6 4.8Z" fill="#112231"/>
  <path d="m115 104.8-1 .1a6 6 0 0 1-5.3-2.8c-3-4.5-1.3-13 .7-19.2a113 113 0 0 1 27.3-44.3c3.4-3.1 8.4-6.8 12.7-6.9 2.3 0 4.1 1 5.4 2.8 3 4.5 1.2 13-.7 19.2A113 113 0 0 1 126.7 98c-3.1 2.9-7.6 6.3-11.6 6.8Zm34-69.3c-2.4.4-5.8 2.4-9.5 5.8A109.3 109.3 0 0 0 113.1 84c-2.3 7.5-2.8 13.6-1.1 16 .5.8 1.1 1.2 2 1.1 2.4 0 6-2 10-5.7a109.6 109.6 0 0 0 26.3-42.7c2.4-7.6 2.8-13.6 1.2-16.1-.5-.8-1.2-1.1-2.1-1.1h-.5Z" fill="#68CDB5"/>
  <path d="M197.6 212.6h.8a6.3 6.3 0 0 0 5.9-8.6 68.6 68.6 0 0 1-6.7 8.6Z" fill="#112231"/>
  <path d="M144.1 118.4a5 5 0 1 0 0-10 5 5 0 0 0 0 10Zm-18.4-104c-5.4 3.2-7 5.7-9 14.4-2-8.7-3.6-11.2-9-14.4 5.4-3.2 7-5.7 9-14.4 2 8.7 3.6 11.2 9 14.4Z" fill="#FF945A"/>
  <path d="M40.6 176.6c-5.4 3.2-7 5.7-9 14.4-2-8.7-3.6-11.2-9-14.4 5.4-3.2 7-5.7 9-14.4 2 8.7 3.6 11.2 9 14.4Z" fill="#68CDB5"/>
  <path d="M198.1 210a6.3 6.3 0 1 0 0-12.7 6.3 6.3 0 0 0 0 12.6Z" fill="#BBF6E2"/>
  <path d="m178.2 74.9-6 11.2-10.8 2 8 6.9-4.6 11.1 11.4-8 11.6 6.4-6-12 8.8-4.8-10-1.3-2.4-11.5Z" fill="#004E60"/>
</svg>