<svg xmlns="http://www.w3.org/2000/svg" fill="none" viewBox="0 0 1207 404">
  <path fill="#F2F8F3" d="M123 282.3v-161h42.9v21.6a47.6 47.6 0 0 1 43.8-24.6 49 49 0 0 1 44.7 25.8c16.8-17.7 29.7-25.8 49.8-25.8 36.3 0 56.7 20.4 56.7 57.9v106.1h-46.2v-87.2c0-22.5-4.8-32.7-22.5-32.7-18 0-27.6 11-27.6 32.7v87.2H218v-87.2c0-22.5-4.8-32.7-22.5-32.7-18 0-27.6 11-27.6 32.7v87.2h-45Zm292.6-140a85 85 0 1 1 93.2 138 83.5 83.5 0 0 1-33.2 6.3 79.6 79.6 0 0 1-61-25.8 84.2 84.2 0 0 1-23.6-59.4 82.6 82.6 0 0 1 24.6-59.1Zm60.3 99.3a39.8 39.8 0 1 0-38.1-39.6 38.9 38.9 0 0 0 38 39.6Zm115.3 40.7v-161h45l-.6 21.6a50.1 50.1 0 0 1 46.2-24.6c33.3 0 54.9 21 54.9 57.9v106.1h-47.4v-87.2c0-22.5-4.8-32.7-23.1-32.7-18.6 0-28.5 11-28.5 32.7v87.2h-46.5Zm346.6-140.1a85 85 0 1 1 93.2 138 83.6 83.6 0 0 1-33.2 6.4 79.6 79.6 0 0 1-61-25.8 84.2 84.2 0 0 1-23.6-59.4 82.6 82.6 0 0 1 24.6-59.2Zm60.3 99.3A39.8 39.8 0 1 0 960 202a38.9 38.9 0 0 0 38.1 39.5Zm-226.9 40.8v-33.5l66.3-85.9h-66.3v-41.6H891v38l-58.5 81.4h59.7v41.6h-121Z"/>
</svg>
